<svg width="512" height="512" viewBox="0 0 512 512" fill="none" xmlns="http://www.w3.org/2000/svg">
<g clip-path="url(#clip0_545_2)">
<path d="M439.312 76.626C392.889 30.189 326.261 0 256.09 0C195.738 0 136.646 22.178 91.002 61.479L68.648 24.214C65.367 18.765 59.0089 16.04 52.8279 17.227C46.5879 18.487 41.842 23.526 40.933 29.81L19.722 178.301C18.275 188.333 26.992 196.659 36.685 195.279L185.162 174.068C191.461 173.16 196.5 168.414 197.76 162.188C199.02 155.962 196.207 149.62 190.758 146.353L155.367 125.113C203.745 87.2 254.514 90.517 257.525 90C313.57 90 350.806 115.43 372.164 136.802C403.482 168.12 422.115 212.3 421.998 254.956C421.998 263.457 428.863 270 436.998 270H496.998C505.26 270 511.969 263.32 511.998 255.059C512.262 186.123 487.125 124.424 439.312 76.626V76.626Z" fill="url(#paint0_linear_545_2)"/>
<path d="M475.344 316.854L326.867 338.065C320.568 338.973 315.529 343.719 314.269 349.945C313.009 356.171 315.822 362.513 321.271 365.78L356.544 386.962C327.774 409.491 291.007 422.104 254.972 422.001C198.488 422.748 161.281 396.63 139.835 375.199C108.518 343.88 89.8851 299.7 90.0021 257.044C90.0021 248.543 83.1371 242 75.0021 242H15.0021C6.74006 242 0.0310583 248.68 0.00205825 256.941C-0.261942 325.877 24.8751 387.576 72.6881 435.374C118.824 481.524 181.259 510.223 255.911 512C316.263 512 375.325 489.822 420.97 450.55L443.382 487.918C446.663 493.367 452.991 496.121 459.202 494.905C465.442 493.645 470.188 488.606 471.097 482.322L492.308 333.831C493.755 323.79 484.94 315.365 475.344 316.854V316.854Z" fill="url(#paint1_linear_545_2)"/>
</g>
<defs>
<linearGradient id="paint0_linear_545_2" x1="265.782" y1="270" x2="265.782" y2="0" gradientUnits="userSpaceOnUse">
<stop stop-color="#FD5900"/>
<stop offset="1" stop-color="#FFDE00"/>
</linearGradient>
<linearGradient id="paint1_linear_545_2" x1="246.232" y1="512" x2="246.232" y2="242" gradientUnits="userSpaceOnUse">
<stop stop-color="#FFE59A"/>
<stop offset="1" stop-color="#FFFFD5"/>
</linearGradient>
<clipPath id="clip0_545_2">
<rect width="512" height="512" fill="white"/>
</clipPath>
</defs>
</svg>
