<svg width="512" height="512" viewBox="0 0 512 512" fill="none" xmlns="http://www.w3.org/2000/svg">
<g clip-path="url(#clip0_546_2)">
<path d="M441.45 318.731C440.793 318.731 440.185 318.433 439.782 317.914L397.039 262.771L393.77 260.186L392.77 263.407V427.067L393.77 430.728H465.964C467.682 430.728 469.074 429.336 469.074 427.618V319.731L467.809 318.731H441.45Z" fill="#F6A96C"/>
<path d="M400.719 139.917L330.817 99.5599C328.588 98.2729 325.801 99.8819 325.801 102.456V121.246C325.801 123.093 324.304 124.59 322.457 124.59H214.154V161.036H322.457C324.304 161.036 325.801 162.533 325.801 164.38V183.17C325.801 185.744 328.588 187.353 330.817 186.066L400.718 145.709C402.948 144.422 402.948 141.204 400.719 139.917V139.917Z" fill="#4FC123"/>
<path d="M169.279 125.858C170.287 125.858 171.176 125.354 171.721 124.589H163.674C162.616 124.589 161.684 125.09 161.071 125.858H169.279Z" fill="#4FC123"/>
<path d="M169.279 125.858C170.287 125.858 171.176 125.354 171.721 124.589H163.674C162.616 124.589 161.684 125.09 161.071 125.858H169.279Z" fill="#47A920"/>
<path d="M247.79 157.692V127.934C247.79 126.087 249.287 124.59 251.134 124.59H214.154V161.036H251.134C249.287 161.036 247.79 159.539 247.79 157.692Z" fill="#47A920"/>
<path d="M76.305 86.289L75.305 81.272H3.11C1.392 81.272 0 82.664 0 84.382V248.704C0 250.422 1.392 251.814 3.11 251.814H75.304L76.304 246.612V86.289H76.305Z" fill="#FFBD86"/>
<path d="M22 248.704V84.382C22 82.664 23.392 81.272 25.11 81.272H3.11C1.392 81.272 0 82.664 0 84.382V248.704C0 250.422 1.392 251.814 3.11 251.814H25.11C23.392 251.814 22 250.422 22 248.704Z" fill="#F6A96C"/>
<path d="M212.045 81.272H172.279L171.279 82.365V122.858C171.279 123.961 170.382 124.858 169.279 124.858H121.179C120.076 124.858 119.179 123.961 119.179 122.858V82.305L118.179 81.273H75.3042V251.815H212.045C213.763 251.815 215.155 250.423 215.155 248.705V84.382C215.155 82.665 213.762 81.272 212.045 81.272V81.272Z" fill="#FED2A4"/>
<path d="M121.18 125.858H169.279C170.936 125.858 172.279 124.515 172.279 122.858V81.272H118.18V122.858C118.18 124.515 119.523 125.858 121.18 125.858Z" fill="#FE646F"/>
<path d="M118.18 81.272V121.858C118.18 124.067 119.971 125.858 122.18 125.858H144.211V81.272H118.18Z" fill="#FD4755"/>
<path d="M393.77 260.186V430.728H423.919V299.081L393.77 260.186Z" fill="#EA9B58"/>
<path d="M391.756 261.186L348.688 317.897C348.291 318.419 347.663 318.731 347.007 318.731H256.268L253.92 319.731V356.423H334.656C335.949 356.423 337.001 357.475 337.001 358.767V388.525C337.001 389.817 335.949 390.869 334.656 390.869H253.92V427.618C253.92 429.336 255.312 430.728 257.03 430.728H393.77V260.186L391.756 261.186Z" fill="#FED2A4"/>
<path d="M253.919 319.731H288.189V356.423H253.919V319.731Z" fill="#FFBD86"/>
<path d="M288.19 427.618V390.869H253.92V427.618C253.92 429.336 255.312 430.728 257.03 430.728H291.3C289.582 430.728 288.19 429.336 288.19 427.618V427.618Z" fill="#FFBD86"/>
<path d="M393.77 260.186L438.992 318.526C439.581 319.286 440.489 319.731 441.45 319.731H508.884C511.47 319.731 512.926 316.759 511.342 314.716L469.074 260.186H393.77Z" fill="#C4E2FF"/>
<path d="M473.503 318.526L428.281 260.186H393.77L438.992 318.526C439.581 319.286 440.488 319.731 441.45 319.731H475.961C475 319.731 474.092 319.286 473.503 318.526V318.526Z" fill="#B3DAFE"/>
<path d="M347.007 319.731H214.967C212.396 319.731 210.935 316.788 212.49 314.74L253.92 260.186H393.77L349.484 318.502C348.896 319.276 347.979 319.731 347.007 319.731V319.731Z" fill="#C4E2FF"/>
<path d="M256.032 314.74L297.462 260.186H253.92L212.49 314.74C210.935 316.788 212.395 319.731 214.967 319.731H258.509C255.937 319.731 254.477 316.788 256.032 314.74V314.74Z" fill="#B3DAFE"/>
<path d="M167.512 330.392L97.6112 370.75C95.3822 372.037 95.3822 375.255 97.6112 376.542L167.512 416.899C169.741 418.186 172.528 416.577 172.528 414.003V395.213C172.528 393.366 174.025 391.869 175.872 391.869H334.656C336.503 391.869 338 390.372 338 388.525V358.767C338 356.92 336.503 355.423 334.656 355.423H175.872C174.025 355.423 172.528 353.926 172.528 352.079V333.289C172.528 330.714 169.741 329.105 167.512 330.392V330.392Z" fill="#FE646F"/>
<path d="M116.008 360.128L97.6112 370.75C95.3822 372.037 95.3822 375.255 97.6112 376.542L167.512 416.899C169.741 418.186 172.528 416.577 172.528 414.003V395.213C172.528 394.44 172.801 393.738 173.241 393.171L116.008 360.128Z" fill="#FD4755"/>
</g>
<defs>
<clipPath id="clip0_546_2">
<rect width="512" height="512" fill="white"/>
</clipPath>
</defs>
</svg>
