<svg width="512" height="512" viewBox="0 0 512 512" fill="none" xmlns="http://www.w3.org/2000/svg">
<path d="M284.728 498.531L261.848 510.557C258.187 512.481 253.813 512.481 250.152 510.557L227.272 498.531C101.637 432.497 24.2729 310.645 24.2729 178.797V98.26C24.2729 91.891 29.0269 86.446 35.3599 85.778C78.6649 81.209 113.094 50.207 118.581 10.999C119.46 4.726 124.717 0 131.052 0H380.949C387.283 0 392.541 4.726 393.419 10.999C398.906 50.207 433.335 81.209 476.64 85.778C482.974 86.446 487.727 91.892 487.727 98.26V178.796C487.727 310.645 410.363 432.497 284.728 498.531Z" fill="#E1E6E9"/>
<path d="M476.639 85.778C433.334 81.209 398.905 50.207 393.418 10.999C392.54 4.726 387.283 0 380.948 0H363.935C366.386 54.359 405.121 92.912 447.031 97.333C453.365 98.001 458.118 103.446 458.118 109.815V190.351C458.118 322.199 380.754 444.052 255.12 510.085L252.478 511.473C255.575 512.378 258.934 512.086 261.847 510.555L284.727 498.529C410.361 432.495 487.725 310.643 487.725 178.795V98.26C487.726 91.891 482.973 86.446 476.639 85.778Z" fill="#CBCBCB"/>
<path d="M247.521 466.238C190.551 436.295 143.163 393.259 110.482 341.784C78.1867 290.917 61.1157 233.11 61.1157 174.613V128.9C61.1157 122.285 65.1327 116.314 71.2837 113.88C105.166 100.473 132.507 75.3072 147.46 43.8692C150.124 38.2672 155.819 34.7402 162.023 34.7402H349.977C356.18 34.7402 361.875 38.2672 364.539 43.8692C379.493 75.3072 406.833 100.474 440.715 113.881C446.866 116.315 450.883 122.286 450.883 128.901V174.614C450.883 233.111 433.813 290.918 401.518 341.785C368.837 393.26 321.449 436.296 264.48 466.239L263.532 466.737C258.817 469.215 253.184 469.215 248.469 466.737L247.521 466.238Z" fill="#4AD194"/>
<path d="M440.715 113.88C440.45 113.775 440.188 113.663 439.924 113.556C439.484 113.379 439.046 113.199 438.608 113.018C437.86 112.709 437.116 112.393 436.374 112.073C435.946 111.888 435.517 111.703 435.091 111.514C434.299 111.162 433.513 110.802 432.729 110.437C432.374 110.272 432.016 110.111 431.663 109.943C430.535 109.408 429.414 108.861 428.303 108.299C428.219 108.257 428.137 108.212 428.054 108.169C427.025 107.646 426.005 107.111 424.991 106.566C424.632 106.372 424.276 106.173 423.919 105.977C423.182 105.573 422.448 105.165 421.72 104.748C421.316 104.517 420.915 104.283 420.514 104.049C419.827 103.648 419.143 103.241 418.463 102.829C418.068 102.59 417.674 102.35 417.281 102.107C416.57 101.667 415.866 101.219 415.164 100.768C414.822 100.548 414.478 100.331 414.138 100.109C413.179 99.4812 412.228 98.8432 411.286 98.1942C411.216 98.1462 411.144 98.0992 411.074 98.0512C410.063 97.3512 409.063 96.6382 408.072 95.9142C407.763 95.6882 407.458 95.4572 407.151 95.2292C406.47 94.7242 405.792 94.2152 405.121 93.6992C404.761 93.4222 404.404 93.1412 404.047 92.8612C403.427 92.3742 402.811 91.8832 402.199 91.3872C401.843 91.0982 401.488 90.8092 401.135 90.5172C400.509 89.9992 399.889 89.4742 399.273 88.9462C398.957 88.6752 398.638 88.4062 398.324 88.1322C397.562 87.4682 396.809 86.7942 396.063 86.1152C395.909 85.9742 395.751 85.8372 395.597 85.6962C394.702 84.8742 393.82 84.0412 392.948 83.1972C392.697 82.9542 392.451 82.7062 392.202 82.4612C391.582 81.8532 390.966 81.2422 390.358 80.6232C390.048 80.3072 389.742 79.9882 389.435 79.6692C388.891 79.1052 388.351 78.5372 387.817 77.9642C387.505 77.6292 387.194 77.2932 386.885 76.9552C386.351 76.3702 385.823 75.7802 385.299 75.1872C385.015 74.8662 384.73 74.5462 384.449 74.2232C383.835 73.5152 383.231 72.7992 382.632 72.0792C382.458 71.8702 382.28 71.6642 382.107 71.4542C381.341 70.5222 380.587 69.5792 379.847 68.6282C379.657 68.3852 379.474 68.1372 379.286 67.8922C378.738 67.1782 378.194 66.4612 377.661 65.7372C377.405 65.3902 377.154 65.0392 376.902 64.6902C376.443 64.0542 375.988 63.4152 375.539 62.7722C375.278 62.3972 375.019 62.0212 374.762 61.6442C374.322 60.9982 373.888 60.3472 373.46 59.6942C373.222 59.3312 372.982 58.9692 372.747 58.6042C372.27 57.8612 371.803 57.1122 371.34 56.3602C371.17 56.0842 370.995 55.8102 370.827 55.5332C370.205 54.5052 369.596 53.4682 369.001 52.4242C368.876 52.2032 368.756 51.9792 368.632 51.7582C368.167 50.9292 367.708 50.0962 367.26 49.2562C367.062 48.8852 366.871 48.5112 366.677 48.1392C366.311 47.4362 365.949 46.7302 365.595 46.0202C365.392 45.6142 365.193 45.2062 364.995 44.7972C364.845 44.4872 364.687 44.1802 364.539 43.8692C361.874 38.2672 356.18 34.7402 349.977 34.7402H256V468.596C258.587 468.596 261.174 467.977 263.532 466.737L264.48 466.239C321.449 436.296 368.837 393.26 401.518 341.785C433.814 290.918 450.883 233.111 450.883 174.614V128.9C450.883 122.285 446.866 116.314 440.715 113.88Z" fill="#35B79E"/>
<path d="M440.715 113.88C440.45 113.775 440.188 113.663 439.924 113.556C439.484 113.379 439.046 113.199 438.608 113.018C437.86 112.709 437.116 112.393 436.374 112.073C435.946 111.888 435.517 111.703 435.091 111.514C434.299 111.162 433.513 110.802 432.729 110.437C432.374 110.272 432.016 110.111 431.663 109.943C430.535 109.408 429.414 108.861 428.303 108.299C428.219 108.257 428.137 108.212 428.054 108.169C427.025 107.646 426.005 107.111 424.991 106.566C424.632 106.372 424.276 106.173 423.919 105.977C423.182 105.573 422.448 105.165 421.72 104.748C421.316 104.517 420.915 104.283 420.514 104.049C419.827 103.648 419.143 103.241 418.463 102.829C418.068 102.59 417.674 102.35 417.281 102.107C416.57 101.667 415.866 101.219 415.164 100.768C414.822 100.548 414.478 100.331 414.138 100.109C413.179 99.4808 412.228 98.8428 411.286 98.1938C411.216 98.1458 411.144 98.0988 411.074 98.0508C410.063 97.3508 409.063 96.6378 408.072 95.9138C407.763 95.6878 407.458 95.4568 407.151 95.2288C406.47 94.7238 405.792 94.2148 405.121 93.6988C404.761 93.4218 404.404 93.1408 404.047 92.8608C403.427 92.3738 402.811 91.8828 402.199 91.3868C401.843 91.0978 401.488 90.8088 401.135 90.5168C400.509 89.9988 399.889 89.4738 399.273 88.9458C398.957 88.6748 398.638 88.4058 398.324 88.1318C397.562 87.4678 396.809 86.7938 396.063 86.1148C395.909 85.9738 395.751 85.8368 395.597 85.6958C394.702 84.8738 393.82 84.0408 392.948 83.1968C392.697 82.9538 392.451 82.7058 392.202 82.4608C391.582 81.8528 390.966 81.2418 390.358 80.6228C390.048 80.3068 389.742 79.9878 389.435 79.6688C388.891 79.1048 388.351 78.5368 387.817 77.9638C387.505 77.6288 387.194 77.2928 386.885 76.9548C386.351 76.3698 385.823 75.7798 385.299 75.1868C385.015 74.8658 384.73 74.5458 384.449 74.2228C383.835 73.5148 383.231 72.7988 382.632 72.0788C382.458 71.8698 382.28 71.6638 382.107 71.4538C381.341 70.5218 380.587 69.5788 379.847 68.6278C379.657 68.3848 379.474 68.1368 379.286 67.8918C378.738 67.1778 378.194 66.4608 377.661 65.7368C377.405 65.3898 377.154 65.0388 376.902 64.6898C376.443 64.0538 375.988 63.4148 375.539 62.7718C375.278 62.3968 375.019 62.0208 374.762 61.6438C374.322 60.9978 373.888 60.3468 373.46 59.6938C373.222 59.3308 372.982 58.9688 372.747 58.6038C372.27 57.8608 371.803 57.1118 371.34 56.3598C371.17 56.0838 370.995 55.8098 370.827 55.5318C370.205 54.5038 369.596 53.4668 369.001 52.4228C368.876 52.2018 368.756 51.9778 368.632 51.7568C368.167 50.9268 367.708 50.0938 367.26 49.2548C367.062 48.8848 366.871 48.5108 366.677 48.1378C366.311 47.4338 365.949 46.7288 365.595 46.0188C365.392 45.6128 365.193 45.2048 364.995 44.7958C364.845 44.4858 364.687 44.1788 364.539 43.8678C361.874 38.2658 356.18 34.7388 349.977 34.7388H323.967C327.334 38.9858 331.118 44.5908 335.4 51.9858C335.573 52.2838 335.705 52.6038 335.856 52.9138C336.054 53.3218 336.254 53.7298 336.456 54.1368C336.81 54.8468 337.172 55.5528 337.538 56.2558C337.732 56.6278 337.924 57.0018 338.121 57.3728C338.569 58.2118 339.028 59.0458 339.493 59.8748C339.617 60.0958 339.736 60.3198 339.862 60.5408C340.456 61.5858 341.065 62.6218 341.688 63.6498C341.856 63.9278 342.031 64.2008 342.201 64.4768C342.663 65.2288 343.13 65.9778 343.608 66.7208C343.843 67.0858 344.083 67.4478 344.321 67.8108C344.75 68.4638 345.183 69.1148 345.623 69.7608C345.88 70.1378 346.139 70.5138 346.4 70.8888C346.848 71.5328 347.303 72.1718 347.763 72.8068C348.016 73.1568 348.266 73.5068 348.522 73.8538C349.056 74.5778 349.599 75.2948 350.147 76.0088C350.335 76.2538 350.518 76.5018 350.708 76.7448C351.449 77.6968 352.202 78.6388 352.968 79.5708C353.141 79.7808 353.319 79.9868 353.493 80.1958C354.092 80.9158 354.696 81.6318 355.31 82.3398C355.59 82.6638 355.876 82.9828 356.16 83.3038C356.684 83.8968 357.211 84.4868 357.746 85.0718C358.055 85.4098 358.366 85.7458 358.678 86.0808C359.212 86.6538 359.751 87.2218 360.296 87.7858C360.603 88.1048 360.909 88.4238 361.219 88.7398C361.827 89.3588 362.443 89.9698 363.063 90.5778C363.312 90.8228 363.558 91.0708 363.809 91.3138C364.681 92.1568 365.563 92.9908 366.458 93.8128C366.612 93.9538 366.77 94.0908 366.924 94.2318C367.67 94.9108 368.423 95.5848 369.185 96.2488C369.499 96.5228 369.818 96.7918 370.134 97.0628C370.751 97.5908 371.37 98.1158 371.996 98.6338C372.349 98.9258 372.704 99.2148 373.06 99.5038C373.671 99.9998 374.287 100.491 374.908 100.978C375.265 101.258 375.622 101.539 375.982 101.816C376.653 102.332 377.331 102.841 378.012 103.346C378.319 103.574 378.624 103.805 378.933 104.031C379.924 104.754 380.924 105.468 381.935 106.168C382.005 106.216 382.077 106.263 382.147 106.311C383.089 106.96 384.04 107.597 384.999 108.225C385.339 108.448 385.683 108.664 386.025 108.884C386.727 109.335 387.432 109.783 388.142 110.223C388.534 110.466 388.929 110.705 389.324 110.945C390.004 111.357 390.687 111.764 391.375 112.165C391.776 112.399 392.177 112.633 392.581 112.864C393.309 113.28 394.044 113.688 394.78 114.093C395.138 114.289 395.493 114.489 395.852 114.682C396.865 115.227 397.886 115.762 398.915 116.285C398.999 116.327 399.081 116.372 399.164 116.415C400.275 116.977 401.396 117.523 402.524 118.059C402.877 118.227 403.235 118.388 403.59 118.553C404.374 118.918 405.16 119.278 405.952 119.63C406.378 119.819 406.807 120.004 407.235 120.189C407.976 120.51 408.721 120.825 409.469 121.134C409.907 121.315 410.345 121.495 410.785 121.672C411.05 121.778 411.311 121.891 411.576 121.996C417.727 124.43 421.744 130.401 421.744 137.016V182.729C421.744 241.226 404.674 299.033 372.379 349.9C343.734 395.019 303.79 438.061 256 468.168V468.594C258.587 468.594 261.174 467.975 263.532 466.735L264.48 466.237C321.449 436.294 368.837 393.258 401.518 341.783C433.814 290.916 450.883 233.109 450.883 174.612V128.9C450.883 122.285 446.866 116.314 440.715 113.88Z" fill="#1E9690"/>
<path d="M203.204 198.928V146.783C203.204 117.512 227.017 93.7002 256.288 93.7002C285.558 93.7002 309.371 117.513 309.371 146.783V198.928H324.371V146.783C324.371 109.241 293.829 78.7002 256.288 78.7002C218.747 78.7002 188.205 109.242 188.205 146.783V198.928H203.204Z" fill="#515A66"/>
<path d="M341.904 327.284H170.671C161.64 327.284 154.318 319.963 154.318 310.931V203.546C154.318 194.515 161.639 187.193 170.671 187.193H341.904C350.935 187.193 358.257 194.514 358.257 203.546V310.931C358.256 319.963 350.935 327.284 341.904 327.284Z" fill="#636A75"/>
<path d="M341.904 187.194H312.296C321.327 187.194 328.649 194.515 328.649 203.547V310.932C328.649 319.963 321.328 327.285 312.296 327.285H341.904C350.935 327.285 358.257 319.964 358.257 310.932V203.546C358.256 194.515 350.935 187.194 341.904 187.194Z" fill="#515A66"/>
<path d="M273.854 249.126C273.854 239.424 265.989 231.559 256.287 231.559C246.585 231.559 238.72 239.424 238.72 249.126C238.72 256.141 242.842 262.178 248.787 264.994V286.349C248.787 290.491 252.145 293.849 256.287 293.849C260.43 293.849 263.787 290.491 263.787 286.349V264.995C269.732 262.178 273.854 256.141 273.854 249.126Z" fill="#F1F1F1"/>
</svg>
