<svg width="610" height="142" viewBox="0 0 610 142" fill="none" xmlns="http://www.w3.org/2000/svg">
<path d="M138.643 57.3831C138.643 58.3756 146.798 59.3682 146.798 60.3597C144.976 67.9685 141.246 75.08 135.694 81.283C134.74 82.3573 125.286 75.2458 124.244 76.2384C123.203 77.2299 130.664 86.2446 129.536 87.1543C123.029 92.3647 115.57 96.0033 107.676 97.6579C106.289 97.9884 104.814 89.9662 103.339 90.132C101.865 90.2978 100.39 98.7323 99.0021 98.8152C86.0778 99.4773 73.1523 95.5899 62.7438 87.1543C61.6157 86.2446 69.0761 77.2309 68.035 76.2384C66.995 75.2458 57.5395 82.3584 56.5853 81.283C47.8242 71.3596 43.7479 59.1195 44.3543 46.8805C44.4412 45.4746 53.2893 44.1505 53.4621 42.8285C53.636 41.3397 45.2215 39.8508 45.5693 38.4449C47.3037 30.9189 51.1202 23.8074 56.5853 17.6045C57.5395 16.5291 66.995 23.6416 68.035 22.6491C69.0761 21.6576 61.6169 12.6428 62.7438 11.7332C69.25 6.52278 76.7103 2.88414 84.6031 1.22952C85.905 0.899031 87.2058 9.00417 88.5066 8.83838C90.0682 8.58971 91.7157 0.155154 93.2773 0.0722616C106.202 -0.5898 119.127 3.29752 129.536 11.7332C130.664 12.6428 123.204 21.6565 124.244 22.6491C125.286 23.6416 134.741 16.5291 135.695 17.6045C144.455 27.5279 148.62 39.8508 147.925 52.0898C147.838 53.9091 138.991 55.6456 138.643 57.3831V57.3831Z" fill="#B5B5B5"/>
<path d="M138.644 57.3833C138.644 58.3759 146.798 59.3684 146.798 60.3599C144.976 67.9688 141.246 75.0803 135.694 81.2832C134.74 82.3576 125.286 75.246 124.245 76.2386C123.204 77.2301 130.664 86.2449 129.536 87.1545C123.03 92.3649 115.57 96.0035 107.677 97.6582C106.289 97.9887 104.814 89.9664 103.339 90.1322C101.865 90.298 100.39 98.7325 99.0023 98.8154C86.078 99.4775 73.1525 95.5902 62.7439 87.1545C61.6159 86.2449 69.0763 77.2312 68.0352 76.2386L124.245 22.6493C125.286 23.6419 134.741 16.5293 135.694 17.6047C144.455 27.5281 148.62 39.85 147.925 52.09C147.838 53.9094 138.991 55.6458 138.644 57.3833V57.3833Z" fill="#9D9D9D"/>
<path d="M87.7999 104.174L93.9335 110.02L79.1009 124.162L72.9673 118.315L87.7999 104.174Z" fill="#1E90FF"/>
<path d="M32.6082 51.5386L38.7407 57.3862L23.9002 71.535L17.7666 65.6884L32.6082 51.5386Z" fill="#65B2FD"/>
<path d="M36.6913 76.8857L42.8237 82.7334L14.6964 109.55L8.56396 103.702L36.6913 76.8857Z" fill="#65B2FD"/>
<path d="M61.2225 100.274L67.355 106.121L39.2277 132.938L33.0952 127.091L61.2225 100.274Z" fill="#1E90FF"/>
<path d="M28.0471 120.235L6.07148 141.103L0 135.314L21.8876 114.363L24.9239 117.34L28.0471 120.235Z" fill="#65B2FD"/>
<path d="M147.925 52.0903C147.753 54.9022 147.405 57.6312 146.798 60.3602C137.256 56.8873 126.327 58.2932 117.912 64.3293L135.695 81.2835C134.741 82.3578 133.96 83.5162 132.919 84.5087C131.878 85.5002 130.664 86.2451 129.536 87.1548L111.754 70.2017C105.509 78.14 104.034 88.4778 107.678 97.6574C104.814 98.3183 101.865 98.6499 99.0034 98.8146C95.0119 87.0719 97.4418 74.088 105.595 64.3293L96.1399 55.3156L62.7439 87.1548C61.6159 86.2451 60.4021 85.5013 59.361 84.5087C58.3199 83.5162 57.5397 82.3578 56.5855 81.2835L89.9815 49.4442L80.5259 40.3476C73.4134 45.7227 64.9131 48.6175 56.2377 48.6175C52.2473 48.6175 48.258 48.0383 44.3545 46.881C44.5273 43.9863 44.875 41.1744 45.5683 38.4454C55.1978 41.9183 66.04 40.5123 74.3675 34.5581L56.5855 17.605C57.5397 16.5296 58.3199 15.3712 59.361 14.3797C60.4021 13.3872 61.6159 12.6422 62.7439 11.7336L80.5259 28.6867C86.7713 20.7474 88.246 10.4106 84.6022 1.23002C87.4657 0.569031 90.4151 0.237462 93.2775 0.0727539C97.2679 11.8155 94.838 24.8005 86.6843 34.5581L96.1399 43.5718L129.536 11.7326C130.664 12.6422 131.878 13.3872 132.919 14.3797C133.96 15.3712 134.741 16.5296 135.694 17.605L102.298 49.4442L111.754 58.5408C122.162 50.5186 135.694 48.3688 147.925 52.0903V52.0903Z" fill="#65B2FD"/>
<path d="M24.9239 117.34L28.0471 120.235L6.07146 141.102L3.03516 138.207L24.9239 117.34Z" fill="#1E90FF"/>
<path d="M147.925 52.09C147.752 54.9019 147.404 57.6308 146.798 60.3598C137.255 56.887 126.326 58.2929 117.912 64.329L135.695 81.2831C134.741 82.3575 133.959 83.5158 132.918 84.5084C131.877 85.4998 130.663 86.2448 129.535 87.1545L111.753 70.2014C105.508 78.1397 104.033 88.4775 107.677 97.657C104.813 98.318 101.864 98.6496 99.0028 98.8143C95.0112 87.0716 97.4412 74.0876 105.595 64.329L96.1393 55.3152L62.7433 87.1545C61.6153 86.2448 60.4014 85.5009 59.3604 84.5084L132.918 14.3794C133.959 15.3709 134.741 16.5292 135.694 17.6047L102.298 49.4439L111.753 58.5405C122.162 50.5183 135.694 48.3684 147.925 52.09V52.09Z" fill="#1E90FF"/>
<path d="M199.875 66.0312H188.188L188.125 59.5938H197.938C199.667 59.5938 201.083 59.375 202.188 58.9375C203.292 58.4792 204.115 57.8229 204.656 56.9688C205.219 56.0938 205.5 55.0312 205.5 53.7812C205.5 52.3646 205.229 51.2188 204.688 50.3438C204.167 49.4688 203.344 48.8333 202.219 48.4375C201.115 48.0417 199.688 47.8438 197.938 47.8438H191.438V86H182.062V40.5H197.938C200.583 40.5 202.948 40.75 205.031 41.25C207.135 41.75 208.917 42.5104 210.375 43.5312C211.833 44.5521 212.948 45.8438 213.719 47.4062C214.49 48.9479 214.875 50.7812 214.875 52.9062C214.875 54.7812 214.448 56.5104 213.594 58.0938C212.76 59.6771 211.438 60.9688 209.625 61.9688C207.833 62.9688 205.49 63.5208 202.594 63.625L199.875 66.0312ZM199.469 86H185.625L189.281 78.6875H199.469C201.115 78.6875 202.458 78.4271 203.5 77.9062C204.542 77.3646 205.312 76.6354 205.812 75.7188C206.312 74.8021 206.562 73.75 206.562 72.5625C206.562 71.2292 206.333 70.0729 205.875 69.0938C205.438 68.1146 204.729 67.3646 203.75 66.8438C202.771 66.3021 201.479 66.0312 199.875 66.0312H190.844L190.906 59.5938H202.156L204.312 62.125C207.083 62.0833 209.312 62.5729 211 63.5938C212.708 64.5938 213.948 65.8958 214.719 67.5C215.51 69.1042 215.906 70.8229 215.906 72.6562C215.906 75.5729 215.271 78.0312 214 80.0312C212.729 82.0104 210.865 83.5 208.406 84.5C205.969 85.5 202.99 86 199.469 86ZM220.938 69.4375V68.7812C220.938 66.3021 221.292 64.0208 222 61.9375C222.708 59.8333 223.74 58.0104 225.094 56.4688C226.448 54.9271 228.115 53.7292 230.094 52.875C232.073 52 234.344 51.5625 236.906 51.5625C239.469 51.5625 241.75 52 243.75 52.875C245.75 53.7292 247.427 54.9271 248.781 56.4688C250.156 58.0104 251.198 59.8333 251.906 61.9375C252.615 64.0208 252.969 66.3021 252.969 68.7812V69.4375C252.969 71.8958 252.615 74.1771 251.906 76.2812C251.198 78.3646 250.156 80.1875 248.781 81.75C247.427 83.2917 245.76 84.4896 243.781 85.3438C241.802 86.1979 239.531 86.625 236.969 86.625C234.406 86.625 232.125 86.1979 230.125 85.3438C228.146 84.4896 226.469 83.2917 225.094 81.75C223.74 80.1875 222.708 78.3646 222 76.2812C221.292 74.1771 220.938 71.8958 220.938 69.4375ZM229.938 68.7812V69.4375C229.938 70.8542 230.062 72.1771 230.312 73.4062C230.562 74.6354 230.958 75.7188 231.5 76.6562C232.062 77.5729 232.792 78.2917 233.688 78.8125C234.583 79.3333 235.677 79.5938 236.969 79.5938C238.219 79.5938 239.292 79.3333 240.188 78.8125C241.083 78.2917 241.802 77.5729 242.344 76.6562C242.885 75.7188 243.281 74.6354 243.531 73.4062C243.802 72.1771 243.938 70.8542 243.938 69.4375V68.7812C243.938 67.4062 243.802 66.1146 243.531 64.9062C243.281 63.6771 242.875 62.5938 242.312 61.6562C241.771 60.6979 241.052 59.9479 240.156 59.4062C239.26 58.8646 238.177 58.5938 236.906 58.5938C235.635 58.5938 234.552 58.8646 233.656 59.4062C232.781 59.9479 232.062 60.6979 231.5 61.6562C230.958 62.5938 230.562 63.6771 230.312 64.9062C230.062 66.1146 229.938 67.4062 229.938 68.7812ZM278.5 77.9062V52.1875H287.5V86H279.031L278.5 77.9062ZM279.5 70.9688L282.156 70.9062C282.156 73.1562 281.896 75.25 281.375 77.1875C280.854 79.1042 280.073 80.7708 279.031 82.1875C277.99 83.5833 276.677 84.6771 275.094 85.4688C273.51 86.2396 271.646 86.625 269.5 86.625C267.854 86.625 266.333 86.3958 264.938 85.9375C263.562 85.4583 262.375 84.7188 261.375 83.7188C260.396 82.6979 259.625 81.3958 259.062 79.8125C258.521 78.2083 258.25 76.2812 258.25 74.0312V52.1875H267.25V74.0938C267.25 75.0938 267.365 75.9375 267.594 76.625C267.844 77.3125 268.188 77.875 268.625 78.3125C269.062 78.75 269.573 79.0625 270.156 79.25C270.76 79.4375 271.427 79.5312 272.156 79.5312C274.01 79.5312 275.469 79.1562 276.531 78.4062C277.615 77.6562 278.375 76.6354 278.812 75.3438C279.271 74.0312 279.5 72.5729 279.5 70.9688ZM303.188 59.4062V86H294.188V52.1875H302.625L303.188 59.4062ZM301.875 67.9062H299.438C299.438 65.4062 299.76 63.1562 300.406 61.1562C301.052 59.1354 301.958 57.4167 303.125 56C304.292 54.5625 305.677 53.4688 307.281 52.7188C308.906 51.9479 310.719 51.5625 312.719 51.5625C314.302 51.5625 315.75 51.7917 317.062 52.25C318.375 52.7083 319.5 53.4375 320.438 54.4375C321.396 55.4375 322.125 56.7604 322.625 58.4062C323.146 60.0521 323.406 62.0625 323.406 64.4375V86H314.344V64.4062C314.344 62.9062 314.135 61.7396 313.719 60.9062C313.302 60.0729 312.688 59.4896 311.875 59.1562C311.083 58.8021 310.104 58.625 308.938 58.625C307.729 58.625 306.677 58.8646 305.781 59.3438C304.906 59.8229 304.177 60.4896 303.594 61.3438C303.031 62.1771 302.604 63.1562 302.312 64.2812C302.021 65.4062 301.875 66.6146 301.875 67.9062ZM344.219 79.5938C345.323 79.5938 346.302 79.3854 347.156 78.9688C348.01 78.5312 348.677 77.9271 349.156 77.1562C349.656 76.3646 349.917 75.4375 349.938 74.375H358.406C358.385 76.75 357.75 78.8646 356.5 80.7188C355.25 82.5521 353.573 84 351.469 85.0625C349.365 86.1042 347.01 86.625 344.406 86.625C341.781 86.625 339.49 86.1875 337.531 85.3125C335.594 84.4375 333.979 83.2292 332.688 81.6875C331.396 80.125 330.427 78.3125 329.781 76.25C329.135 74.1667 328.812 71.9375 328.812 69.5625V68.6562C328.812 66.2604 329.135 64.0312 329.781 61.9688C330.427 59.8854 331.396 58.0729 332.688 56.5312C333.979 54.9688 335.594 53.75 337.531 52.875C339.469 52 341.74 51.5625 344.344 51.5625C347.115 51.5625 349.542 52.0938 351.625 53.1562C353.729 54.2188 355.375 55.7396 356.562 57.7188C357.771 59.6771 358.385 62 358.406 64.6875H349.938C349.917 63.5625 349.677 62.5417 349.219 61.625C348.781 60.7083 348.135 59.9792 347.281 59.4375C346.448 58.875 345.417 58.5938 344.188 58.5938C342.875 58.5938 341.802 58.875 340.969 59.4375C340.135 59.9792 339.49 60.7292 339.031 61.6875C338.573 62.625 338.25 63.6979 338.062 64.9062C337.896 66.0938 337.812 67.3438 337.812 68.6562V69.5625C337.812 70.875 337.896 72.1354 338.062 73.3438C338.229 74.5521 338.542 75.625 339 76.5625C339.479 77.5 340.135 78.2396 340.969 78.7812C341.802 79.3229 342.885 79.5938 344.219 79.5938ZM379.188 86.625C376.562 86.625 374.208 86.2083 372.125 85.375C370.042 84.5208 368.271 83.3438 366.812 81.8438C365.375 80.3438 364.271 78.6042 363.5 76.625C362.729 74.625 362.344 72.5 362.344 70.25V69C362.344 66.4375 362.708 64.0938 363.438 61.9688C364.167 59.8438 365.208 58 366.562 56.4375C367.938 54.875 369.604 53.6771 371.562 52.8438C373.521 51.9896 375.729 51.5625 378.188 51.5625C380.583 51.5625 382.708 51.9583 384.562 52.75C386.417 53.5417 387.969 54.6667 389.219 56.125C390.49 57.5833 391.448 59.3333 392.094 61.375C392.74 63.3958 393.062 65.6458 393.062 68.125V71.875H366.188V65.875H384.219V65.1875C384.219 63.9375 383.99 62.8229 383.531 61.8438C383.094 60.8438 382.427 60.0521 381.531 59.4688C380.635 58.8854 379.49 58.5938 378.094 58.5938C376.906 58.5938 375.885 58.8542 375.031 59.375C374.177 59.8958 373.479 60.625 372.938 61.5625C372.417 62.5 372.021 63.6042 371.75 64.875C371.5 66.125 371.375 67.5 371.375 69V70.25C371.375 71.6042 371.562 72.8542 371.938 74C372.333 75.1458 372.885 76.1354 373.594 76.9688C374.323 77.8021 375.198 78.4479 376.219 78.9062C377.26 79.3646 378.438 79.5938 379.75 79.5938C381.375 79.5938 382.885 79.2812 384.281 78.6562C385.698 78.0104 386.917 77.0417 387.938 75.75L392.312 80.5C391.604 81.5208 390.635 82.5 389.406 83.4375C388.198 84.375 386.74 85.1458 385.031 85.75C383.323 86.3333 381.375 86.625 379.188 86.625ZM438.375 74.0938C438.375 73.2812 438.25 72.5521 438 71.9062C437.771 71.2396 437.333 70.6354 436.688 70.0938C436.042 69.5312 435.135 68.9792 433.969 68.4375C432.802 67.8958 431.292 67.3333 429.438 66.75C427.375 66.0833 425.417 65.3333 423.562 64.5C421.729 63.6667 420.104 62.6979 418.688 61.5938C417.292 60.4688 416.188 59.1667 415.375 57.6875C414.583 56.2083 414.188 54.4896 414.188 52.5312C414.188 50.6354 414.604 48.9167 415.438 47.375C416.271 45.8125 417.438 44.4792 418.938 43.375C420.438 42.25 422.208 41.3854 424.25 40.7812C426.312 40.1771 428.573 39.875 431.031 39.875C434.385 39.875 437.312 40.4792 439.812 41.6875C442.312 42.8958 444.25 44.5521 445.625 46.6562C447.021 48.7604 447.719 51.1667 447.719 53.875H438.406C438.406 52.5417 438.125 51.375 437.562 50.375C437.021 49.3542 436.188 48.5521 435.062 47.9688C433.958 47.3854 432.562 47.0938 430.875 47.0938C429.25 47.0938 427.896 47.3438 426.812 47.8438C425.729 48.3229 424.917 48.9792 424.375 49.8125C423.833 50.625 423.562 51.5417 423.562 52.5625C423.562 53.3333 423.75 54.0312 424.125 54.6562C424.521 55.2812 425.104 55.8646 425.875 56.4062C426.646 56.9479 427.594 57.4583 428.719 57.9375C429.844 58.4167 431.146 58.8854 432.625 59.3438C435.104 60.0938 437.281 60.9375 439.156 61.875C441.052 62.8125 442.635 63.8646 443.906 65.0312C445.177 66.1979 446.135 67.5208 446.781 69C447.427 70.4792 447.75 72.1562 447.75 74.0312C447.75 76.0104 447.365 77.7812 446.594 79.3438C445.823 80.9062 444.708 82.2292 443.25 83.3125C441.792 84.3958 440.052 85.2188 438.031 85.7812C436.01 86.3438 433.75 86.625 431.25 86.625C429 86.625 426.781 86.3333 424.594 85.75C422.406 85.1458 420.417 84.2396 418.625 83.0312C416.854 81.8229 415.438 80.2812 414.375 78.4062C413.312 76.5312 412.781 74.3125 412.781 71.75H422.188C422.188 73.1667 422.406 74.3646 422.844 75.3438C423.281 76.3229 423.896 77.1146 424.688 77.7188C425.5 78.3229 426.458 78.7604 427.562 79.0312C428.688 79.3021 429.917 79.4375 431.25 79.4375C432.875 79.4375 434.208 79.2083 435.25 78.75C436.312 78.2917 437.094 77.6562 437.594 76.8438C438.115 76.0312 438.375 75.1146 438.375 74.0938ZM462.344 38V86H453.344V38H462.344ZM461.062 67.9062H458.594C458.615 65.5521 458.927 63.3854 459.531 61.4062C460.135 59.4062 461 57.6771 462.125 56.2188C463.25 54.7396 464.594 53.5938 466.156 52.7812C467.74 51.9688 469.49 51.5625 471.406 51.5625C473.073 51.5625 474.583 51.8021 475.938 52.2812C477.312 52.7396 478.49 53.4896 479.469 54.5312C480.469 55.5521 481.24 56.8958 481.781 58.5625C482.323 60.2292 482.594 62.25 482.594 64.625V86H473.531V64.5625C473.531 63.0625 473.312 61.8854 472.875 61.0312C472.458 60.1562 471.844 59.5417 471.031 59.1875C470.24 58.8125 469.26 58.625 468.094 58.625C466.802 58.625 465.698 58.8646 464.781 59.3438C463.885 59.8229 463.167 60.4896 462.625 61.3438C462.083 62.1771 461.688 63.1562 461.438 64.2812C461.188 65.4062 461.062 66.6146 461.062 67.9062ZM488 69.4375V68.7812C488 66.3021 488.354 64.0208 489.062 61.9375C489.771 59.8333 490.802 58.0104 492.156 56.4688C493.51 54.9271 495.177 53.7292 497.156 52.875C499.135 52 501.406 51.5625 503.969 51.5625C506.531 51.5625 508.812 52 510.812 52.875C512.812 53.7292 514.49 54.9271 515.844 56.4688C517.219 58.0104 518.26 59.8333 518.969 61.9375C519.677 64.0208 520.031 66.3021 520.031 68.7812V69.4375C520.031 71.8958 519.677 74.1771 518.969 76.2812C518.26 78.3646 517.219 80.1875 515.844 81.75C514.49 83.2917 512.823 84.4896 510.844 85.3438C508.865 86.1979 506.594 86.625 504.031 86.625C501.469 86.625 499.188 86.1979 497.188 85.3438C495.208 84.4896 493.531 83.2917 492.156 81.75C490.802 80.1875 489.771 78.3646 489.062 76.2812C488.354 74.1771 488 71.8958 488 69.4375ZM497 68.7812V69.4375C497 70.8542 497.125 72.1771 497.375 73.4062C497.625 74.6354 498.021 75.7188 498.562 76.6562C499.125 77.5729 499.854 78.2917 500.75 78.8125C501.646 79.3333 502.74 79.5938 504.031 79.5938C505.281 79.5938 506.354 79.3333 507.25 78.8125C508.146 78.2917 508.865 77.5729 509.406 76.6562C509.948 75.7188 510.344 74.6354 510.594 73.4062C510.865 72.1771 511 70.8542 511 69.4375V68.7812C511 67.4062 510.865 66.1146 510.594 64.9062C510.344 63.6771 509.938 62.5938 509.375 61.6562C508.833 60.6979 508.115 59.9479 507.219 59.4062C506.323 58.8646 505.24 58.5938 503.969 58.5938C502.698 58.5938 501.615 58.8646 500.719 59.4062C499.844 59.9479 499.125 60.6979 498.562 61.6562C498.021 62.5938 497.625 63.6771 497.375 64.9062C497.125 66.1146 497 67.4062 497 68.7812ZM534.562 58.6875V99H525.562V52.1875H533.906L534.562 58.6875ZM555.969 68.7188V69.375C555.969 71.8333 555.677 74.1146 555.094 76.2188C554.531 78.3229 553.698 80.1562 552.594 81.7188C551.49 83.2604 550.115 84.4688 548.469 85.3438C546.844 86.1979 544.969 86.625 542.844 86.625C540.781 86.625 538.99 86.2083 537.469 85.375C535.948 84.5417 534.667 83.375 533.625 81.875C532.604 80.3542 531.781 78.5938 531.156 76.5938C530.531 74.5938 530.052 72.4479 529.719 70.1562V68.4375C530.052 65.9792 530.531 63.7292 531.156 61.6875C531.781 59.625 532.604 57.8438 533.625 56.3438C534.667 54.8229 535.938 53.6458 537.438 52.8125C538.958 51.9792 540.74 51.5625 542.781 51.5625C544.927 51.5625 546.812 51.9688 548.438 52.7812C550.083 53.5938 551.458 54.7604 552.562 56.2812C553.688 57.8021 554.531 59.6146 555.094 61.7188C555.677 63.8229 555.969 66.1562 555.969 68.7188ZM546.938 69.375V68.7188C546.938 67.2812 546.812 65.9583 546.562 64.75C546.333 63.5208 545.958 62.4479 545.438 61.5312C544.938 60.6146 544.271 59.9062 543.438 59.4062C542.625 58.8854 541.635 58.625 540.469 58.625C539.24 58.625 538.188 58.8229 537.312 59.2188C536.458 59.6146 535.76 60.1875 535.219 60.9375C534.677 61.6875 534.271 62.5833 534 63.625C533.729 64.6667 533.562 65.8438 533.5 67.1562V71.5C533.604 73.0417 533.896 74.4271 534.375 75.6562C534.854 76.8646 535.594 77.8229 536.594 78.5312C537.594 79.2396 538.906 79.5938 540.531 79.5938C541.719 79.5938 542.719 79.3333 543.531 78.8125C544.344 78.2708 545 77.5312 545.5 76.5938C546.021 75.6562 546.385 74.5729 546.594 73.3438C546.823 72.1146 546.938 70.7917 546.938 69.375Z" fill="white"/>
</svg>
