<svg width="512" height="458" viewBox="0 0 512 458" fill="none" xmlns="http://www.w3.org/2000/svg">
<path d="M148.004 352.317C125.635 351.175 126.056 319.712 148.003 318.619C210.171 318.836 374.144 318.678 438.289 318.723C455.833 318.723 470.843 306.783 474.789 289.69L511.213 131.965C513.299 122.935 511.194 113.588 505.439 106.323C499.683 99.0578 491.068 94.8326 481.8 94.8326C455.995 94.8326 236.954 93.8411 124.761 93.3938L106.977 27.4058C102.708 11.6364 88.3169 0.623535 71.9802 0.623535H15.008C6.71957 0.623535 0 7.34311 0 15.6315C0 23.9199 6.71957 30.6395 15.008 30.6395H71.9802C74.7927 30.6395 77.2691 32.5355 78.0004 35.2339L146.302 288.645C134.292 289.081 123.106 293.965 114.624 302.572C105.711 311.617 100.925 323.589 101.146 336.285C101.588 361.675 122.608 382.332 148.004 382.332H169.887C166.635 389.16 164.809 396.793 164.809 404.845C164.809 433.811 188.373 457.375 217.338 457.375C246.304 457.375 269.868 433.811 269.868 404.845C269.868 396.792 268.041 389.16 264.789 382.332H359.555C356.305 389.158 354.479 396.787 354.479 404.837C354.479 433.803 378.045 457.367 407.009 457.367C435.975 457.367 459.54 433.802 459.54 404.837C459.54 396.474 457.565 388.566 454.073 381.54C460.012 379.54 464.295 373.938 464.295 367.325C464.295 359.037 457.575 352.317 449.287 352.317H148.004ZM239.851 404.846C239.851 417.261 229.752 427.36 217.337 427.36C204.923 427.36 194.824 417.261 194.824 404.846C194.824 392.439 204.913 382.343 217.318 382.333H217.356C229.762 382.343 239.851 392.439 239.851 404.846ZM407.01 427.352C394.597 427.352 384.496 417.252 384.496 404.838C384.496 392.547 394.4 382.53 406.645 382.333H407.376C419.623 382.53 429.526 392.547 429.526 404.838C429.525 417.252 419.425 427.352 407.01 427.352V427.352ZM481.91 124.959C481.999 125.071 481.986 125.124 481.967 125.21L466.62 191.67H414.65L423.5 124.611L481.68 124.846C481.769 124.848 481.822 124.848 481.91 124.959V124.959ZM327.183 288.706V221.686H380.413L371.568 288.706H327.183ZM252.761 288.706L243.845 221.686H297.167V288.706H252.761ZM183.672 288.706H183.625C179.967 288.705 176.744 286.237 175.792 282.722L159.342 221.686H213.563L222.48 288.706H183.672ZM239.85 191.671L230.825 123.836L297.166 124.103V191.671H239.85ZM327.183 191.671V124.224L393.24 124.49L384.374 191.671H327.183ZM200.528 123.713L209.569 191.67H151.251L132.862 123.44L200.528 123.713ZM438.289 288.706H401.843L410.688 221.686H459.687L445.543 282.936C444.758 286.333 441.776 288.706 438.289 288.706Z" fill="white"/>
</svg>
