<svg width="512" height="512" viewBox="0 0 512 512" fill="none" xmlns="http://www.w3.org/2000/svg">
<path d="M128 160C128 151.168 120.832 144 112 144H16C7.168 144 0 151.168 0 160C0 168.832 7.168 176 16 176H112C120.832 176 128 168.832 128 160Z" fill="#FFC107"/>
<path d="M112 208H48C39.168 208 32 215.168 32 224C32 232.832 39.168 240 48 240H112C120.832 240 128 232.832 128 224C128 215.168 120.832 208 112 208Z" fill="#FFC107"/>
<path d="M112 272H80C71.168 272 64 279.168 64 288C64 296.832 71.168 304 80 304H112C120.832 304 128 296.832 128 288C128 279.168 120.832 272 112 272Z" fill="#FFC107"/>
<path d="M509.728 263.776L461.728 183.776C458.848 178.944 453.632 176 448 176H336C327.168 176 320 183.168 320 192V352C320 360.832 327.168 368 336 368H496C504.832 368 512 360.832 512 352V272C512 269.088 511.232 266.24 509.728 263.776Z" fill="#F44336"/>
<path d="M384 208H438.944L477.344 272H384V208Z" fill="#FAFAFA"/>
<path d="M336 112H112C103.168 112 96 119.168 96 128V352C96 360.832 103.168 368 112 368H352V128C352 119.168 344.832 112 336 112Z" fill="#FFC107"/>
<path d="M432 384C449.673 384 464 369.673 464 352C464 334.327 449.673 320 432 320C414.327 320 400 334.327 400 352C400 369.673 414.327 384 432 384Z" fill="#FAFAFA"/>
<path d="M432 400C405.536 400 384 378.464 384 352C384 325.536 405.536 304 432 304C458.464 304 480 325.536 480 352C480 378.464 458.464 400 432 400ZM432 336C423.2 336 416 343.2 416 352C416 360.8 423.2 368 432 368C440.8 368 448 360.8 448 352C448 343.2 440.8 336 432 336Z" fill="#455A64"/>
<path d="M352 368H112C103.168 368 96 360.832 96 352V304H352V368Z" fill="#F44336"/>
<path d="M208 384C225.673 384 240 369.673 240 352C240 334.327 225.673 320 208 320C190.327 320 176 334.327 176 352C176 369.673 190.327 384 208 384Z" fill="#FAFAFA"/>
<path d="M208 400C181.536 400 160 378.464 160 352C160 325.536 181.536 304 208 304C234.464 304 256 325.536 256 352C256 378.464 234.464 400 208 400ZM208 336C199.168 336 192 343.2 192 352C192 360.8 199.168 368 208 368C216.832 368 224 360.8 224 352C224 343.2 216.832 336 208 336Z" fill="#455A64"/>
</svg>
