<svg width="512" height="512" viewBox="0 0 512 512" fill="none" xmlns="http://www.w3.org/2000/svg">
<path d="M443.345 256.002C443.345 359.47 359.468 443.347 256 443.347C152.532 443.347 68.6543 359.47 68.6543 256.002C68.6543 152.534 152.532 68.6562 256 68.6562C359.468 68.6562 443.345 152.534 443.345 256.002V256.002Z" fill="#D3D3D3"/>
<path d="M443.346 268.221C443.346 364.941 364.939 443.348 268.219 443.348C171.499 443.348 93.0918 364.941 93.0918 268.221C93.0918 171.501 171.499 93.0938 268.219 93.0938C364.939 93.0938 443.346 171.501 443.346 268.221Z" fill="white"/>
<path fill-rule="evenodd" clip-rule="evenodd" d="M205.572 173.335C209.022 166.589 216.073 162.328 223.786 162.328H280.07C287.783 162.328 294.834 166.589 298.284 173.335L313.019 202.15H353.746C364.993 202.15 374.11 211.065 374.11 222.061V321.617C374.11 328.077 370.964 333.818 366.089 337.455L308.946 341.528H150.11C138.863 341.528 129.746 332.614 129.746 321.617V222.061C129.746 211.065 138.863 202.15 150.11 202.15H170.473L205.572 173.335ZM321.164 231.564C321.164 227.066 324.811 223.419 329.31 223.419H341.528C346.027 223.419 349.673 227.066 349.673 231.564C349.673 236.063 346.027 239.71 341.528 239.71H329.31C324.811 239.71 321.164 236.063 321.164 231.564ZM251.928 308.946C278.92 308.946 300.801 287.065 300.801 260.074C300.801 233.082 278.92 211.201 251.928 211.201C224.936 211.201 203.055 233.082 203.055 260.074C203.055 287.065 224.936 308.946 251.928 308.946Z" fill="#565656"/>
<path fill-rule="evenodd" clip-rule="evenodd" d="M141.603 112.805C172.957 87.7245 212.727 72.7273 256 72.7273C357.219 72.7273 439.273 154.781 439.273 256C439.273 299.273 424.275 339.043 399.195 370.396L141.603 112.805ZM112.805 141.603C87.7245 172.957 72.7273 212.727 72.7273 256C72.7273 357.219 154.781 439.273 256 439.273C299.273 439.273 339.043 424.275 370.396 399.195L112.805 141.603ZM256 32C132.288 32 32 132.288 32 256C32 379.712 132.288 480 256 480C379.712 480 480 379.712 480 256C480 132.288 379.712 32 256 32V32Z" fill="#FF4545"/>
</svg>
