<svg width="512" height="214" viewBox="0 0 512 214" fill="none" xmlns="http://www.w3.org/2000/svg">
<path fill-rule="evenodd" clip-rule="evenodd" d="M512 110.556C512 74.1474 494.365 45.4185 460.658 45.4185C426.809 45.4185 406.329 74.1474 406.329 110.272C406.329 153.081 430.507 174.698 465.209 174.698C482.133 174.698 494.934 170.859 504.604 165.454V137.009C494.933 141.845 483.84 144.832 469.76 144.832C455.964 144.832 443.733 139.996 442.169 123.213H511.715C511.716 121.364 512 113.969 512 110.556ZM441.743 97.0444C441.743 80.9731 451.556 74.2883 460.516 74.2883C469.192 74.2883 478.436 80.9731 478.436 97.0444H441.743Z" fill="#635BFF"/>
<path fill-rule="evenodd" clip-rule="evenodd" d="M351.431 45.4185C337.494 45.4185 328.533 51.9602 323.555 56.512L321.706 47.6944H290.417V213.526L325.973 205.988L326.115 165.74C331.235 169.438 338.773 174.699 351.288 174.699C376.746 174.699 399.928 154.219 399.928 109.135C399.787 67.8896 376.32 45.4185 351.431 45.4185ZM342.897 143.41C334.506 143.41 329.529 140.423 326.115 136.725L325.973 83.96C329.671 79.8351 334.791 76.9912 342.897 76.9912C355.84 76.9912 364.8 91.4977 364.8 110.129C364.801 129.187 355.982 143.41 342.897 143.41Z" fill="#635BFF"/>
<path fill-rule="evenodd" clip-rule="evenodd" d="M241.494 37.0266L277.191 29.347V0.476074L241.494 8.01379V37.0266Z" fill="#635BFF"/>
<path d="M277.191 47.8354H241.494V172.28H277.191V47.8354Z" fill="#635BFF"/>
<path fill-rule="evenodd" clip-rule="evenodd" d="M203.236 58.3599L200.96 47.8353H170.24V172.279H205.796V87.9417C214.187 76.9902 228.409 78.9821 232.818 80.546V47.8353C228.267 46.1294 211.627 43.0005 203.236 58.3599Z" fill="#635BFF"/>
<path fill-rule="evenodd" clip-rule="evenodd" d="M132.125 16.9736L97.4223 24.3694L97.2803 138.289C97.2803 159.338 113.067 174.84 134.116 174.84C145.778 174.84 154.311 172.707 159.005 170.147V141.276C154.454 143.125 131.983 149.666 131.983 128.618V78.1292H159.005V47.8364H131.983L132.125 16.9736Z" fill="#635BFF"/>
<path fill-rule="evenodd" clip-rule="evenodd" d="M35.9826 83.96C35.9826 78.4132 40.5334 76.2803 48.0711 76.2803C58.8797 76.2803 72.5332 79.5511 83.3427 85.3829V51.9602C71.5382 47.2674 59.8757 45.4185 48.0711 45.4185C19.2003 45.4185 0 60.4939 0 85.6669C0 124.92 54.0449 118.663 54.0449 135.587C54.0449 142.13 48.3561 144.263 40.3914 144.263C28.5869 144.263 13.5115 139.427 1.56494 132.885V166.734C14.7914 172.423 28.1609 174.84 40.3914 174.84C69.9733 174.84 90.3115 160.191 90.3115 134.734C90.1695 92.3516 35.9826 99.8893 35.9826 83.96Z" fill="#635BFF"/>
</svg>
