<svg width="512" height="512" viewBox="0 0 512 512" fill="none" xmlns="http://www.w3.org/2000/svg">
<g clip-path="url(#clip0_529_2)">
<path d="M179.809 401.408L103.424 443.073C98.9416 445.517 94.9133 448.522 91.165 451.796C135.699 489.346 193.188 512 256 512C318.348 512 375.47 489.684 419.879 452.647C415.783 449.188 411.339 446.078 406.412 443.624L324.618 402.731C314.049 397.447 307.374 386.647 307.374 374.832V342.74C309.673 340.122 312.301 336.761 315.112 332.79C326.26 317.044 334.693 299.723 340.538 281.552C351.029 278.315 358.758 268.626 358.758 257.111V222.855C358.758 215.32 355.405 208.587 350.198 203.873V154.353C350.198 154.353 360.371 77.2926 256.01 77.2926C151.649 77.2926 161.821 154.353 161.821 154.353V203.873C156.604 208.587 153.262 215.32 153.262 222.855V257.111C153.262 266.134 158.005 274.075 165.106 278.663C173.665 315.923 196.077 342.74 196.077 342.74V374.04C196.067 385.439 189.826 395.94 179.809 401.408Z" fill="#E7ECED"/>
<path d="M260.376 0.0386097C119.016 -2.37648 2.45373 110.264 0.0386349 251.624C-1.33314 331.776 34.3909 403.813 91.2712 451.719C94.9905 448.473 98.9802 445.498 103.414 443.083L179.799 401.418C189.817 395.95 196.057 385.449 196.057 374.03V342.731C196.057 342.731 173.636 315.914 165.086 278.654C157.995 274.065 153.243 266.134 153.243 257.101V222.846C153.243 215.31 156.595 208.577 161.802 203.863V154.344C161.802 154.344 151.629 77.283 255.99 77.283C360.351 77.283 350.179 154.344 350.179 154.344V203.863C355.396 208.577 358.738 215.31 358.738 222.846V257.101C358.738 268.616 351.01 278.306 340.519 281.542C334.674 299.713 326.241 317.034 315.093 332.781C312.281 336.751 309.654 340.113 307.355 342.731V374.823C307.355 386.637 314.03 397.447 324.598 402.722L406.393 443.614C411.3 446.068 415.734 449.169 419.821 452.618C474.981 406.615 510.619 337.833 511.942 260.376C514.376 119.016 401.746 2.4537 260.376 0.0386097Z" fill="#556080"/>
</g>
<defs>
<clipPath id="clip0_529_2">
<rect width="512" height="512" fill="white"/>
</clipPath>
</defs>
</svg>
